<mxfile host="app.diagrams.net" agent="Mozilla/5.0 (Macintosh; Intel Mac OS X 10_15_7) AppleWebKit/537.36 (KHTML, like Gecko) Chrome/140.0.0.0 Safari/537.36" version="28.2.5">
  <diagram name="第 1 页" id="c8SDyT68PIQZvh0T6EyP">
    <mxGraphModel dx="1018" dy="655" grid="1" gridSize="10" guides="1" tooltips="1" connect="1" arrows="1" fold="1" page="1" pageScale="1" pageWidth="827" pageHeight="1169" math="0" shadow="0">
      <root>
        <mxCell id="0" />
        <mxCell id="1" parent="0" />
        <mxCell id="mvZhOEaOCcuFYLV9gbfs-3" value="" style="edgeStyle=orthogonalEdgeStyle;rounded=0;orthogonalLoop=1;jettySize=auto;html=1;" edge="1" parent="1" source="mvZhOEaOCcuFYLV9gbfs-1" target="mvZhOEaOCcuFYLV9gbfs-2">
          <mxGeometry relative="1" as="geometry" />
        </mxCell>
        <mxCell id="mvZhOEaOCcuFYLV9gbfs-1" value="实时标签创建" style="ellipse;whiteSpace=wrap;html=1;" vertex="1" parent="1">
          <mxGeometry x="320" y="50" width="100" height="60" as="geometry" />
        </mxCell>
        <mxCell id="mvZhOEaOCcuFYLV9gbfs-7" value="" style="edgeStyle=orthogonalEdgeStyle;rounded=0;orthogonalLoop=1;jettySize=auto;html=1;" edge="1" parent="1" source="mvZhOEaOCcuFYLV9gbfs-2" target="mvZhOEaOCcuFYLV9gbfs-6">
          <mxGeometry relative="1" as="geometry" />
        </mxCell>
        <mxCell id="mvZhOEaOCcuFYLV9gbfs-2" value="标签基础&lt;div&gt;元数据&lt;span style=&quot;background-color: transparent; color: light-dark(rgb(0, 0, 0), rgb(255, 255, 255));&quot;&gt;校验&lt;/span&gt;&lt;/div&gt;" style="rhombus;whiteSpace=wrap;html=1;" vertex="1" parent="1">
          <mxGeometry x="310" y="150" width="120" height="60" as="geometry" />
        </mxCell>
        <mxCell id="mvZhOEaOCcuFYLV9gbfs-17" value="" style="edgeStyle=orthogonalEdgeStyle;rounded=0;orthogonalLoop=1;jettySize=auto;html=1;" edge="1" parent="1" source="mvZhOEaOCcuFYLV9gbfs-6" target="mvZhOEaOCcuFYLV9gbfs-16">
          <mxGeometry relative="1" as="geometry" />
        </mxCell>
        <mxCell id="mvZhOEaOCcuFYLV9gbfs-6" value="" style="whiteSpace=wrap;html=1;" vertex="1" parent="1">
          <mxGeometry x="285" y="240" width="170" height="300" as="geometry" />
        </mxCell>
        <mxCell id="mvZhOEaOCcuFYLV9gbfs-10" value="接口源信息校验" style="text;strokeColor=none;fillColor=none;align=left;verticalAlign=middle;spacingLeft=4;spacingRight=4;overflow=hidden;points=[[0,0.5],[1,0.5]];portConstraint=eastwest;rotatable=0;whiteSpace=wrap;html=1;" vertex="1" parent="1">
          <mxGeometry x="320" y="250" width="100" height="30" as="geometry" />
        </mxCell>
        <mxCell id="mvZhOEaOCcuFYLV9gbfs-13" value="" style="edgeStyle=orthogonalEdgeStyle;rounded=0;orthogonalLoop=1;jettySize=auto;html=1;" edge="1" parent="1" source="mvZhOEaOCcuFYLV9gbfs-11">
          <mxGeometry relative="1" as="geometry">
            <mxPoint x="370" y="352.5" as="targetPoint" />
          </mxGeometry>
        </mxCell>
        <mxCell id="mvZhOEaOCcuFYLV9gbfs-11" value="接口源判存" style="rhombus;whiteSpace=wrap;html=1;" vertex="1" parent="1">
          <mxGeometry x="327" y="280" width="86" height="50" as="geometry" />
        </mxCell>
        <mxCell id="mvZhOEaOCcuFYLV9gbfs-15" value="" style="edgeStyle=orthogonalEdgeStyle;rounded=0;orthogonalLoop=1;jettySize=auto;html=1;" edge="1" parent="1" target="mvZhOEaOCcuFYLV9gbfs-14">
          <mxGeometry relative="1" as="geometry">
            <mxPoint x="370" y="430" as="sourcePoint" />
          </mxGeometry>
        </mxCell>
        <mxCell id="mvZhOEaOCcuFYLV9gbfs-14" value="值类型校验" style="rhombus;whiteSpace=wrap;html=1;" vertex="1" parent="1">
          <mxGeometry x="327" y="470" width="85" height="50" as="geometry" />
        </mxCell>
        <mxCell id="mvZhOEaOCcuFYLV9gbfs-16" value="信息存储" style="shape=cylinder3;whiteSpace=wrap;html=1;boundedLbl=1;backgroundOutline=1;size=15;" vertex="1" parent="1">
          <mxGeometry x="339.5" y="585" width="60" height="80" as="geometry" />
        </mxCell>
        <mxCell id="mvZhOEaOCcuFYLV9gbfs-18" value="core服务调用&lt;div&gt;接口源结果查询&lt;/div&gt;" style="ellipse;shape=cloud;whiteSpace=wrap;html=1;" vertex="1" parent="1">
          <mxGeometry x="309.5" y="350" width="120" height="80" as="geometry" />
        </mxCell>
      </root>
    </mxGraphModel>
  </diagram>
</mxfile>
